<svg width="23px" height="23px" viewBox="-40.96 -40.96 1105.92 1105.92" class="icon" version="1.1" xmlns="http://www.w3.org/2000/svg" fill="#000000"><g id="SVGRepo_bgCarrier" stroke-width="0"></g><g id="SVGRepo_tracerCarrier" stroke-linecap="round" stroke-linejoin="round" stroke="#CCCCCC" stroke-width="6.144"></g><g id="SVGRepo_iconCarrier"><path d="M512 1024C229.7 1024 0 794.3 0 512S229.7 0 512 0s512 229.7 512 512-229.7 512-512 512z m0-938.7C276.7 85.3 85.3 276.7 85.3 512S276.7 938.7 512 938.7 938.7 747.3 938.7 512 747.3 85.3 512 85.3z" fill="#000000"></path><path d="M640 682.7c-9.6 0-19.3-3.2-27.3-9.9l-128-106.7c-9.7-8.1-15.4-20.1-15.4-32.8V384c0-23.6 19.1-42.7 42.7-42.7s42.7 19.1 42.7 42.7v129.4l112.6 93.9c18.1 15.1 20.5 42 5.5 60.1-8.5 10-20.6 15.3-32.8 15.3z" fill="#05091f"></path></g></svg>