<?xml version="1.0" encoding="UTF-8"?>
<!DOCTYPE svg PUBLIC "-//W3C//DTD SVG 1.1//EN" "http://www.w3.org/Graphics/SVG/1.1/DTD/svg11.dtd">
<!-- Creator: CorelDRAW -->
<svg xmlns="http://www.w3.org/2000/svg" xml:space="preserve" width="15.6388mm" height="10.8605mm" version="1.1" style="shape-rendering:geometricPrecision; text-rendering:geometricPrecision; image-rendering:optimizeQuality; fill-rule:evenodd; clip-rule:evenodd"
viewBox="0 0 1554.16 1079.3"
 xmlns:xlink="http://www.w3.org/1999/xlink"
 xmlns:xodm="http://www.corel.com/coreldraw/odm/2003">
 <defs>
  <style type="text/css">
   <![CDATA[
    .fil1 {fill:#000000}
    .fil0 {fill:#000000;fill-rule:nonzero}
   ]]>
  </style>
 </defs>
 <g id="Layer_x0020_1">
  <metadata id="CorelCorpID_0Corel-Layer"/>
  <path class="fil0" d="M1195.61 904.21l-1.22 17.23c-1.33,18.87 -10.31,35.55 -23.68,47.19l-0.11 0.08c-13.41,11.61 -31.18,18.15 -50.06,16.8l-238.64 -16.88 -291.86 109.6 91.21 -60.69 224.35 -93.7 218.22 15.44c6.29,0.46 12.14,-1.68 16.52,-5.47l0.09 -0.09c4.37,-3.78 7.3,-9.28 7.74,-15.57l0.84 -11.82 46.61 -2.14z"/>
  <path class="fil0" d="M1274.49 757.15l2.44 53.35c1.03,22.32 -7.2,43.1 -21.29,58.58l-0.11 0.11c-14.13,15.45 -34.08,25.55 -56.39,26.57l-282.1 12.94 -327.01 169.54 112.59 -93.35 211.63 -130.83 282.39 -12.95c7.43,-0.33 14,-3.64 18.6,-8.68l0.1 -0.12c4.6,-5.03 7.29,-11.89 6.95,-19.32l-2.07 -44.92 54.26 -10.93z"/>
  <path class="fil0" d="M266.09 178.9l877.86 -176.93c26.73,-5.4 53.25,0.64 74.38,14.68 21.14,14.04 36.96,36.15 42.35,62.89l50.27 249.37 -67.77 0 -47.61 -236.23c-1.76,-8.79 -7,-16.07 -13.99,-20.71 -6.99,-4.65 -15.72,-6.65 -24.51,-4.88l-877.84 176.94c-8.84,1.78 -16.14,6.98 -20.79,13.94 -4.61,6.97 -6.58,15.72 -4.8,24.56l9.35 46.38 -67.77 0 -6.71 -33.26c-5.37,-26.65 0.67,-53.12 14.71,-74.27l0.1 -0.15c14.06,-21.14 36.11,-36.95 62.77,-42.33zm1103.95 443.14l1.22 6.05c5.36,26.6 -0.68,53.07 -14.72,74.27l-0.1 0.15c-14.1,21.16 -36.17,36.97 -62.77,42.34l-336.18 67.76 -368.92 266.7 -37.26 -184.83 -135.48 27.31c-26.75,5.4 -53.26,-0.64 -74.39,-14.69 -21.14,-14.03 -36.96,-36.14 -42.36,-62.9l-21.86 -108.48 66.36 -6.91 20.61 102.27c1.78,8.78 7.01,16.07 13.99,20.71 7,4.64 15.73,6.65 24.51,4.88l197.85 -39.88 30.23 149.99 313.02 -219.18 336.75 -67.88c8.85,-1.78 16.14,-6.97 20.73,-13.86l0.1 -0.16c4.57,-6.9 6.54,-15.61 4.74,-24.48l-2.47 -12.27 66.38 -6.91z"/>
  <path class="fil0" d="M400.03 398.66c-27.36,0 -40.14,17.9 -40.14,45l0 92.57c0,27.1 12.78,45 40.14,45 27.62,0 40.4,-17.9 40.4,-45l0 -22.25 -18.91 0 0 23.27c0,16.11 -6.4,25.82 -20.97,25.82 -14.32,0 -20.97,-9.71 -20.97,-25.82l0 -94.61c0,-16.12 6.65,-25.83 20.97,-25.83 14.57,0 20.97,9.71 20.97,25.83l0 17.12 18.91 0 0 -16.11c0,-27.1 -12.78,-45 -40.4,-45zm122.48 100.23l0 80.55 19.94 0 0 -178.99 -19.94 0 0 80.55 -43.98 0 0 -80.55 -19.95 0 0 178.99 19.95 0 0 -80.55 43.98 0zm105.86 44.49l6.91 36.05 19.94 0 -34.26 -178.99 -28.9 0 -34.27 178.99 18.41 0 6.9 -36.05 45.27 0zm-23.02 -120.44l20.2 103.3 -39.89 0 19.69 -103.3zm111.49 156.49l0 -160.83 32.98 0 0 -18.16 -85.92 0 0 18.16 32.99 0 0 160.83 19.95 0zm37.84 -80.55l48.83 0 0 -17.9 -48.83 0 0 17.9zm68.52 -98.44l0 178.99 41.17 0c27.87,0 40.91,-15.09 40.91,-41.94l0 -15.09c0,-19.69 -6.65,-33.49 -24.04,-38.35 15.6,-4.86 20.97,-16.63 20.97,-35.55l0 -8.44c0,-26.34 -10.99,-39.63 -38.87,-39.63l-40.15 0zm19.95 75.95l0 -57.79 19.7 0c14.31,0 19.69,7.67 19.69,23.52l0 10.48c0,18.66 -8.19,23.78 -24.04,23.78l-15.34 0zm0 84.89l0 -66.73 17.39 0c17.13,0 25.05,6.64 25.05,26.59l0 15.85c0,16.62 -6.65,24.29 -21.22,24.29l-21.23 0zm78.76 -25.05c0,27.1 13.56,45 40.91,45 27.62,0 41.16,-17.9 41.16,-45l0 -92.57c0,-27.36 -13.55,-45 -41.16,-45 -27.36,0 -40.91,17.64 -40.91,45l0 92.57zm19.69 -93.58c0,-16.12 6.91,-25.83 21.23,-25.83 14.57,0 21.22,9.71 21.22,25.83l0 94.61c0,16.36 -6.65,25.82 -21.22,25.82 -14.32,0 -21.23,-9.46 -21.23,-25.82l0 -94.61zm79.78 93.58c0,27.1 13.56,45 40.9,45 27.62,0 41.17,-17.9 41.17,-45l0 -92.57c0,-27.36 -13.56,-45 -41.17,-45 -27.35,0 -40.9,17.64 -40.9,45l0 92.57zm19.69 -93.58c0,-16.12 6.91,-25.83 21.22,-25.83 14.58,0 21.23,9.71 21.23,25.83l0 94.61c0,16.36 -6.65,25.82 -21.23,25.82 -14.31,0 -21.22,-9.46 -21.22,-25.82l0 -94.61zm150.09 136.79l20.46 0 -46.8 -97.42 45.26 -81.57 -20.19 0 -47.56 86.43 0 -86.43 -19.95 0 0 178.99 19.95 0 0 -60.09 10.48 -17.64 38.35 77.73z"/>
  <circle class="fil1" cx="1345.23" cy="487.63" r="31.37"/>
  <circle class="fil1" cx="1434.01" cy="487.63" r="31.37"/>
  <circle class="fil1" cx="1522.79" cy="487.63" r="31.37"/>
  <circle class="fil1" cx="31.37" cy="487.63" r="31.37"/>
  <circle class="fil1" cx="120.15" cy="487.63" r="31.37"/>
  <circle class="fil1" cx="208.92" cy="487.63" r="31.37"/>
 </g>
</svg>
