<?xml version="1.0" standalone="no"?>
<!DOCTYPE svg PUBLIC "-//W3C//DTD SVG 20010904//EN" "http://www.w3.org/TR/2001/REC-SVG-20010904/DTD/svg10.dtd">
<svg version="1.0" xmlns="http://www.w3.org/2000/svg" width="1280.000000pt" height="853.000000pt"
	viewBox="0 0 1280.000000 853.000000" preserveAspectRatio="xMidYMid meet">
	<metadata>
		Created by potrace 1.15, written by Peter Selinger 2001-2017
	</metadata>
	<g transform="translate(0.000000,853.000000) scale(0.100000,-0.100000)" fill="#916c4f" stroke="none">
		<path d="M4200 7561 c-72 -22 -142 -84 -179 -158 -43 -86 -54 -164 -48 -348 9
-288 55 -485 163 -695 65 -128 107 -184 266 -358 152 -167 184 -199 281 -285
72 -64 291 -300 311 -334 8 -15 -3 -15 -104 -9 -102 6 -122 4 -199 -17 -47
-14 -151 -35 -231 -47 l-145 -23 -80 30 c-109 42 -165 52 -340 61 -158 9 -270
2 -370 -23 -125 -32 -440 -260 -514 -372 -35 -52 -57 -143 -67 -268 -7 -100 2
-135 52 -201 34 -43 142 -128 215 -168 l54 -29 -50 -14 c-40 -12 -64 -29 -120
-87 -124 -127 -170 -245 -163 -410 6 -137 38 -205 142 -304 89 -84 156 -124
245 -148 84 -22 92 -29 50 -47 -46 -19 -115 -97 -147 -165 -22 -47 -27 -75
-30 -155 -8 -206 71 -336 288 -476 97 -63 240 -132 288 -138 23 -3 45 -9 48
-14 2 -4 -12 -29 -31 -55 -68 -88 -78 -118 -73 -213 7 -137 57 -226 178 -314
30 -22 89 -75 130 -116 42 -42 109 -96 150 -121 70 -42 80 -45 150 -46 51 -1
87 -7 110 -19 24 -13 55 -18 100 -17 58 1 68 -2 95 -28 61 -58 111 -75 215
-75 78 0 102 4 135 21 22 12 63 34 90 48 l50 26 155 -12 c200 -17 496 -16 630
1 140 18 456 97 682 172 101 33 210 66 243 74 79 19 541 80 720 96 227 19 631
2 940 -41 360 -49 747 -114 1114 -185 156 -30 361 -66 456 -80 229 -32 910
-108 1265 -139 535 -48 602 -57 1215 -156 138 -22 253 -40 258 -40 4 0 6 723
5 1608 -2 1064 -6 1606 -13 1605 -5 0 -118 -19 -250 -42 -472 -80 -718 -106
-1245 -131 -124 -6 -313 -15 -420 -20 -659 -31 -863 -33 -1698 -19 -455 7
-901 12 -992 11 -91 -2 -204 1 -252 7 -290 37 -534 164 -671 350 -22 31 -114
144 -202 251 -294 355 -545 673 -652 828 -173 251 -224 297 -470 421 -187 94
-341 197 -602 399 -41 31 -82 60 -93 64 -10 4 -22 19 -28 32 -9 25 -107 106
-128 106 -7 0 -18 15 -26 34 -14 33 -64 76 -145 125 -21 13 -98 83 -169 155
-130 131 -131 131 -206 281 -74 149 -177 312 -206 326 -78 39 -91 42 -130 30z" />
	</g>
</svg>